<mxfile host="app.diagrams.net" modified="2024-06-27T18:25:44.550Z" agent="Mozilla/5.0 (Windows NT 10.0; Win64; x64) AppleWebKit/537.36 (KHTML, like Gecko) Chrome/126.0.0.0 Safari/537.36" etag="DiIju7TTzV2iBnV9RDVk" version="24.6.4" type="github">
  <diagram name="Page-1" id="vLUTi3j7QdZeeodx6N5d">
    <mxGraphModel dx="1909" dy="1136" grid="1" gridSize="10" guides="1" tooltips="1" connect="1" arrows="1" fold="1" page="1" pageScale="1" pageWidth="850" pageHeight="1100" math="0" shadow="0">
      <root>
        <mxCell id="0" />
        <mxCell id="1" parent="0" />
        <UserObject label="&lt;h3&gt;عنوان پروژه: پلتفرم مدیریت دوره‌های آنلاین&lt;/h3&gt;&lt;h3&gt;ویژگی‌ها و قابلیت‌ها:&lt;/h3&gt;&lt;ol&gt;&lt;li&gt;&lt;p&gt;&lt;strong&gt;صفحه اصلی:&lt;/strong&gt;&lt;/p&gt;&lt;ul&gt;&lt;li&gt;نمایش لیستی از دوره‌های موجود.&lt;/li&gt;&lt;li&gt;جستجو و فیلتر دوره‌ها بر اساس عنوان، دسته‌بندی و مدرس.&lt;/li&gt;&lt;/ul&gt;&lt;/li&gt;&lt;li&gt;&lt;p&gt;&lt;strong&gt;صفحه جزئیات دوره:&lt;/strong&gt;&lt;/p&gt;&lt;ul&gt;&lt;li&gt;نمایش اطلاعات کامل دوره شامل عنوان، توضیحات، مدرس، و لیست جلسات.&lt;/li&gt;&lt;li&gt;قابلیت ثبت‌نام در دوره (برای کاربران وارد شده).&lt;/li&gt;&lt;/ul&gt;&lt;/li&gt;&lt;li&gt;&lt;p&gt;&lt;strong&gt;پنل کاربری:&lt;/strong&gt;&lt;/p&gt;&lt;ul&gt;&lt;li&gt;ورود و ثبت‌نام کاربران.&lt;/li&gt;&lt;li&gt;مشاهده و مدیریت دوره‌های ثبت‌نام شده.&lt;/li&gt;&lt;li&gt;مشاهده پروفایل و ویرایش اطلاعات شخصی.&lt;/li&gt;&lt;/ul&gt;&lt;/li&gt;&lt;li&gt;&lt;p&gt;&lt;strong&gt;پنل مدیریت:&lt;/strong&gt;&lt;/p&gt;&lt;ul&gt;&lt;li&gt;افزودن، ویرایش و حذف دوره‌ها.&lt;/li&gt;&lt;li&gt;مدیریت کاربران ثبت‌نام شده.&lt;/li&gt;&lt;/ul&gt;&lt;/li&gt;&lt;/ol&gt;&lt;h3&gt;مفاهیم و تکنیک‌ها:&lt;/h3&gt;&lt;ol&gt;&lt;li&gt;&lt;p&gt;&lt;strong&gt;مفاهیم ساده:&lt;/strong&gt;&lt;/p&gt;&lt;ul&gt;&lt;li&gt;ایجاد و مدیریت عناصر DOM با استفاده از جاوااسکریپت خالص.&lt;/li&gt;&lt;li&gt;مدیریت رویدادها (Event Handling) مانند کلیک، تغییر و غیره.&lt;/li&gt;&lt;li&gt;کار با فرم‌ها و اعتبارسنجی اطلاعات ورودی.&lt;/li&gt;&lt;/ul&gt;&lt;/li&gt;&lt;li&gt;&lt;p&gt;&lt;strong&gt;مفاهیم متوسط:&lt;/strong&gt;&lt;/p&gt;&lt;ul&gt;&lt;li&gt;کار با LocalStorage برای ذخیره اطلاعات کاربران و دوره‌ها.&lt;/li&gt;&lt;li&gt;ایجاد و مدیریت صفحات با استفاده از جاوااسکریپت (بدون استفاده از فریم‌ورک‌ها).&lt;/li&gt;&lt;li&gt;استفاده از Fetch API برای تعامل با سرور.&lt;/li&gt;&lt;/ul&gt;&lt;/li&gt;&lt;li&gt;&lt;p&gt;&lt;strong&gt;مفاهیم پیشرفته:&lt;/strong&gt;&lt;/p&gt;&lt;ul&gt;&lt;li&gt;پیاده‌سازی سیستم احراز هویت ساده (با استفاده از JWT یا تکنیک‌های مشابه).&lt;/li&gt;&lt;li&gt;مدیریت وضعیت (State Management) با استفاده از الگوهای طراحی مناسب.&lt;/li&gt;&lt;li&gt;استفاده از Promise ها و async/await برای کار با عملیات‌های غیرهمزمان.&lt;/li&gt;&lt;li&gt;پیاده‌سازی Router ساده برای مدیریت صفحات مختلف به صورت SPA.&lt;/li&gt;&lt;li&gt;ایجاد یک سرور بک‌اند ساده با استفاده از Node.js و Express.js (اختیاری برای درک بهتر ارتباط فرانت‌اند و بک‌اند).&lt;/li&gt;&lt;/ul&gt;&lt;/li&gt;&lt;/ol&gt;&lt;h3&gt;ساختار پروژه:&lt;/h3&gt;&lt;ol&gt;&lt;li&gt;&lt;strong&gt;index.html&lt;/strong&gt;: صفحه اصلی شامل لیستی از دوره‌ها.&lt;/li&gt;&lt;li&gt;&lt;strong&gt;course.html&lt;/strong&gt;: صفحه جزئیات دوره.&lt;/li&gt;&lt;li&gt;&lt;strong&gt;login.html&lt;/strong&gt;: صفحه ورود کاربران.&lt;/li&gt;&lt;li&gt;&lt;strong&gt;profile.html&lt;/strong&gt;: صفحه پروفایل کاربر.&lt;/li&gt;&lt;li&gt;&lt;strong&gt;admin.html&lt;/strong&gt;: پنل مدیریت دوره‌ها.&lt;/li&gt;&lt;/ol&gt;&lt;h3&gt;مراحل انجام پروژه:&lt;/h3&gt;&lt;ol&gt;&lt;li&gt;&lt;p&gt;&lt;strong&gt;مرحله 1: ایجاد صفحات اصلی و ساختار HTML&lt;/strong&gt;&lt;/p&gt;&lt;ul&gt;&lt;li&gt;طراحی و پیاده‌سازی صفحات HTML به صورت استاتیک.&lt;/li&gt;&lt;/ul&gt;&lt;/li&gt;&lt;li&gt;&lt;p&gt;&lt;strong&gt;مرحله 2: افزودن استایل‌ها با CSS&lt;/strong&gt;&lt;/p&gt;&lt;ul&gt;&lt;li&gt;استفاده از CSS برای زیباتر کردن صفحات.&lt;/li&gt;&lt;/ul&gt;&lt;/li&gt;&lt;li&gt;&lt;p&gt;&lt;strong&gt;مرحله 3: مدیریت عناصر DOM و رویدادها&lt;/strong&gt;&lt;/p&gt;&lt;ul&gt;&lt;li&gt;افزودن جاوااسکریپت برای مدیریت رویدادها و تغییرات در DOM.&lt;/li&gt;&lt;/ul&gt;&lt;/li&gt;&lt;li&gt;&lt;p&gt;&lt;strong&gt;مرحله 4: پیاده‌سازی سیستم احراز هویت و مدیریت وضعیت&lt;/strong&gt;&lt;/p&gt;&lt;ul&gt;&lt;li&gt;ایجاد فرم‌های ورود و ثبت‌نام، و مدیریت وضعیت ورود کاربران.&lt;/li&gt;&lt;/ul&gt;&lt;/li&gt;&lt;li&gt;&lt;p&gt;&lt;strong&gt;مرحله 5: افزودن Fetch API و تعامل با سرور&lt;/strong&gt;&lt;/p&gt;&lt;ul&gt;&lt;li&gt;استفاده از Fetch API برای ارسال و دریافت داده‌ها از سرور.&lt;/li&gt;&lt;/ul&gt;&lt;/li&gt;&lt;li&gt;&lt;p&gt;&lt;strong&gt;مرحله 6: ایجاد Router ساده برای SPA&lt;/strong&gt;&lt;/p&gt;&lt;ul&gt;&lt;li&gt;مدیریت صفحات با استفاده از جاوااسکریپت و بدون نیاز به رفرش صفحه.&lt;/li&gt;&lt;/ul&gt;&lt;/li&gt;&lt;/ol&gt;&lt;h3&gt;راهنمایی‌های اضافی:&lt;/h3&gt;&lt;ul&gt;&lt;li&gt;&lt;strong&gt;احراز هویت&lt;/strong&gt;: می‌توانید از JWT برای مدیریت احراز هویت کاربران استفاده کنید.&lt;/li&gt;&lt;li&gt;&lt;strong&gt;لوکال‌استوریج&lt;/strong&gt;: برای ذخیره اطلاعات کاربران و دوره‌ها در سمت فرانت‌اند.&lt;/li&gt;&lt;li&gt;&lt;strong&gt;پایگاه داده ساده&lt;/strong&gt;: می‌توانید از فایل JSON برای شبیه‌سازی پایگاه داده استفاده کنید.&lt;/li&gt;&lt;/ul&gt;" link="&lt;h3&gt;عنوان پروژه: پلتفرم مدیریت دوره‌های آنلاین&lt;/h3&gt;&lt;h3&gt;ویژگی‌ها و قابلیت‌ها:&lt;/h3&gt;&lt;ol&gt;&lt;li&gt;&lt;p&gt;&lt;strong&gt;صفحه اصلی:&lt;/strong&gt;&lt;/p&gt;&lt;ul&gt;&lt;li&gt;نمایش لیستی از دوره‌های موجود.&lt;/li&gt;&lt;li&gt;جستجو و فیلتر دوره‌ها بر اساس عنوان، دسته‌بندی و مدرس.&lt;/li&gt;&lt;/ul&gt;&lt;/li&gt;&lt;li&gt;&lt;p&gt;&lt;strong&gt;صفحه جزئیات دوره:&lt;/strong&gt;&lt;/p&gt;&lt;ul&gt;&lt;li&gt;نمایش اطلاعات کامل دوره شامل عنوان، توضیحات، مدرس، و لیست جلسات.&lt;/li&gt;&lt;li&gt;قابلیت ثبت‌نام در دوره (برای کاربران وارد شده).&lt;/li&gt;&lt;/ul&gt;&lt;/li&gt;&lt;li&gt;&lt;p&gt;&lt;strong&gt;پنل کاربری:&lt;/strong&gt;&lt;/p&gt;&lt;ul&gt;&lt;li&gt;ورود و ثبت‌نام کاربران.&lt;/li&gt;&lt;li&gt;مشاهده و مدیریت دوره‌های ثبت‌نام شده.&lt;/li&gt;&lt;li&gt;مشاهده پروفایل و ویرایش اطلاعات شخصی.&lt;/li&gt;&lt;/ul&gt;&lt;/li&gt;&lt;li&gt;&lt;p&gt;&lt;strong&gt;پنل مدیریت:&lt;/strong&gt;&lt;/p&gt;&lt;ul&gt;&lt;li&gt;افزودن، ویرایش و حذف دوره‌ها.&lt;/li&gt;&lt;li&gt;مدیریت کاربران ثبت‌نام شده.&lt;/li&gt;&lt;/ul&gt;&lt;/li&gt;&lt;/ol&gt;&lt;h3&gt;مفاهیم و تکنیک‌ها:&lt;/h3&gt;&lt;ol&gt;&lt;li&gt;&lt;p&gt;&lt;strong&gt;مفاهیم ساده:&lt;/strong&gt;&lt;/p&gt;&lt;ul&gt;&lt;li&gt;ایجاد و مدیریت عناصر DOM با استفاده از جاوااسکریپت خالص.&lt;/li&gt;&lt;li&gt;مدیریت رویدادها (Event Handling) مانند کلیک، تغییر و غیره.&lt;/li&gt;&lt;li&gt;کار با فرم‌ها و اعتبارسنجی اطلاعات ورودی.&lt;/li&gt;&lt;/ul&gt;&lt;/li&gt;&lt;li&gt;&lt;p&gt;&lt;strong&gt;مفاهیم متوسط:&lt;/strong&gt;&lt;/p&gt;&lt;ul&gt;&lt;li&gt;کار با LocalStorage برای ذخیره اطلاعات کاربران و دوره‌ها.&lt;/li&gt;&lt;li&gt;ایجاد و مدیریت صفحات با استفاده از جاوااسکریپت (بدون استفاده از فریم‌ورک‌ها).&lt;/li&gt;&lt;li&gt;استفاده از Fetch API برای تعامل با سرور.&lt;/li&gt;&lt;/ul&gt;&lt;/li&gt;&lt;li&gt;&lt;p&gt;&lt;strong&gt;مفاهیم پیشرفته:&lt;/strong&gt;&lt;/p&gt;&lt;ul&gt;&lt;li&gt;پیاده‌سازی سیستم احراز هویت ساده (با استفاده از JWT یا تکنیک‌های مشابه).&lt;/li&gt;&lt;li&gt;مدیریت وضعیت (State Management) با استفاده از الگوهای طراحی مناسب.&lt;/li&gt;&lt;li&gt;استفاده از Promise ها و async/await برای کار با عملیات‌های غیرهمزمان.&lt;/li&gt;&lt;li&gt;پیاده‌سازی Router ساده برای مدیریت صفحات مختلف به صورت SPA.&lt;/li&gt;&lt;li&gt;ایجاد یک سرور بک‌اند ساده با استفاده از Node.js و Express.js (اختیاری برای درک بهتر ارتباط فرانت‌اند و بک‌اند).&lt;/li&gt;&lt;/ul&gt;&lt;/li&gt;&lt;/ol&gt;&lt;h3&gt;ساختار پروژه:&lt;/h3&gt;&lt;ol&gt;&lt;li&gt;&lt;strong&gt;index.html&lt;/strong&gt;: صفحه اصلی شامل لیستی از دوره‌ها.&lt;/li&gt;&lt;li&gt;&lt;strong&gt;course.html&lt;/strong&gt;: صفحه جزئیات دوره.&lt;/li&gt;&lt;li&gt;&lt;strong&gt;login.html&lt;/strong&gt;: صفحه ورود کاربران.&lt;/li&gt;&lt;li&gt;&lt;strong&gt;profile.html&lt;/strong&gt;: صفحه پروفایل کاربر.&lt;/li&gt;&lt;li&gt;&lt;strong&gt;admin.html&lt;/strong&gt;: پنل مدیریت دوره‌ها.&lt;/li&gt;&lt;/ol&gt;&lt;h3&gt;مراحل انجام پروژه:&lt;/h3&gt;&lt;ol&gt;&lt;li&gt;&lt;p&gt;&lt;strong&gt;مرحله 1: ایجاد صفحات اصلی و ساختار HTML&lt;/strong&gt;&lt;/p&gt;&lt;ul&gt;&lt;li&gt;طراحی و پیاده‌سازی صفحات HTML به صورت استاتیک.&lt;/li&gt;&lt;/ul&gt;&lt;/li&gt;&lt;li&gt;&lt;p&gt;&lt;strong&gt;مرحله 2: افزودن استایل‌ها با CSS&lt;/strong&gt;&lt;/p&gt;&lt;ul&gt;&lt;li&gt;استفاده از CSS برای زیباتر کردن صفحات.&lt;/li&gt;&lt;/ul&gt;&lt;/li&gt;&lt;li&gt;&lt;p&gt;&lt;strong&gt;مرحله 3: مدیریت عناصر DOM و رویدادها&lt;/strong&gt;&lt;/p&gt;&lt;ul&gt;&lt;li&gt;افزودن جاوااسکریپت برای مدیریت رویدادها و تغییرات در DOM.&lt;/li&gt;&lt;/ul&gt;&lt;/li&gt;&lt;li&gt;&lt;p&gt;&lt;strong&gt;مرحله 4: پیاده‌سازی سیستم احراز هویت و مدیریت وضعیت&lt;/strong&gt;&lt;/p&gt;&lt;ul&gt;&lt;li&gt;ایجاد فرم‌های ورود و ثبت‌نام، و مدیریت وضعیت ورود کاربران.&lt;/li&gt;&lt;/ul&gt;&lt;/li&gt;&lt;li&gt;&lt;p&gt;&lt;strong&gt;مرحله 5: افزودن Fetch API و تعامل با سرور&lt;/strong&gt;&lt;/p&gt;&lt;ul&gt;&lt;li&gt;استفاده از Fetch API برای ارسال و دریافت داده‌ها از سرور.&lt;/li&gt;&lt;/ul&gt;&lt;/li&gt;&lt;li&gt;&lt;p&gt;&lt;strong&gt;مرحله 6: ایجاد Router ساده برای SPA&lt;/strong&gt;&lt;/p&gt;&lt;ul&gt;&lt;li&gt;مدیریت صفحات با استفاده از جاوااسکریپت و بدون نیاز به رفرش صفحه.&lt;/li&gt;&lt;/ul&gt;&lt;/li&gt;&lt;/ol&gt;&lt;h3&gt;راهنمایی‌های اضافی:&lt;/h3&gt;&lt;ul&gt;&lt;li&gt;&lt;strong&gt;احراز هویت&lt;/strong&gt;: می‌توانید از JWT برای مدیریت احراز هویت کاربران استفاده کنید.&lt;/li&gt;&lt;li&gt;&lt;strong&gt;لوکال‌استوریج&lt;/strong&gt;: برای ذخیره اطلاعات کاربران و دوره‌ها در سمت فرانت‌اند.&lt;/li&gt;&lt;li&gt;&lt;strong&gt;پایگاه داده ساده&lt;/strong&gt;: می‌توانید از فایل JSON برای شبیه‌سازی پایگاه داده استفاده کنید.&lt;/li&gt;&lt;/ul&gt;" id="z42YFl878_zfLrrGlUJK-1">
          <mxCell style="text;whiteSpace=wrap;html=1;" vertex="1" parent="1">
            <mxGeometry x="90" y="370" width="560" height="1260" as="geometry" />
          </mxCell>
        </UserObject>
        <UserObject label="&lt;h3&gt;تکنولوژی‌ها:&lt;/h3&gt;&lt;ol&gt;&lt;li&gt;&lt;p&gt;&lt;strong&gt;HTML&lt;/strong&gt;:&lt;/p&gt;&lt;ul&gt;&lt;li&gt;ساختاردهی و سازماندهی محتوا&lt;/li&gt;&lt;li&gt;استفاده از تگ‌های اساسی و فرم‌ها&lt;/li&gt;&lt;/ul&gt;&lt;/li&gt;&lt;li&gt;&lt;p&gt;&lt;strong&gt;CSS&lt;/strong&gt;:&lt;/p&gt;&lt;ul&gt;&lt;li&gt;طراحی و استایل‌دهی به صفحات وب&lt;/li&gt;&lt;li&gt;استفاده از Flexbox و Grid برای طراحی ریسپانسیو&lt;/li&gt;&lt;li&gt;انیمیشن‌ها و ترنزیشن‌ها&lt;/li&gt;&lt;/ul&gt;&lt;/li&gt;&lt;li&gt;&lt;p&gt;&lt;strong&gt;Vanilla JavaScript&lt;/strong&gt;:&lt;/p&gt;&lt;ul&gt;&lt;li&gt;مدیریت عناصر DOM&lt;/li&gt;&lt;li&gt;مدیریت رویدادها (Event Handling)&lt;/li&gt;&lt;li&gt;استفاده از Fetch API&lt;/li&gt;&lt;li&gt;مدیریت وضعیت (State Management)&lt;/li&gt;&lt;li&gt;پیاده‌سازی Router ساده&lt;/li&gt;&lt;li&gt;مدیریت محلی داده‌ها (LocalStorage)&lt;/li&gt;&lt;/ul&gt;&lt;/li&gt;&lt;li&gt;&lt;p&gt;&lt;strong&gt;Node.js و Express.js (اختیاری برای بک‌اند)&lt;/strong&gt;:&lt;/p&gt;&lt;ul&gt;&lt;li&gt;پیاده‌سازی سرور ساده&lt;/li&gt;&lt;li&gt;ایجاد و مدیریت API‌های RESTful&lt;/li&gt;&lt;/ul&gt;&lt;/li&gt;&lt;/ol&gt;&lt;h3&gt;مفاهیم:&lt;/h3&gt;&lt;ol&gt;&lt;li&gt;&lt;p&gt;&lt;strong&gt;مفاهیم ابتدایی جاوااسکریپت&lt;/strong&gt;:&lt;/p&gt;&lt;ul&gt;&lt;li&gt;متغیرها و انواع داده‌ها&lt;/li&gt;&lt;li&gt;توابع و نحوه تعریف و استفاده از آنها&lt;/li&gt;&lt;li&gt;حلقه‌ها و شرط‌ها&lt;/li&gt;&lt;/ul&gt;&lt;/li&gt;&lt;li&gt;&lt;p&gt;&lt;strong&gt;مدیریت DOM&lt;/strong&gt;:&lt;/p&gt;&lt;ul&gt;&lt;li&gt;انتخاب و تغییر عناصر DOM&lt;/li&gt;&lt;li&gt;ایجاد، حذف و تغییر عناصر HTML با جاوااسکریپت&lt;/li&gt;&lt;li&gt;مدیریت کلاس‌ها و استایل‌ها با جاوااسکریپت&lt;/li&gt;&lt;/ul&gt;&lt;/li&gt;&lt;li&gt;&lt;p&gt;&lt;strong&gt;مدیریت رویدادها&lt;/strong&gt;:&lt;/p&gt;&lt;ul&gt;&lt;li&gt;اضافه کردن و حذف رویدادها&lt;/li&gt;&lt;li&gt;کار با رویدادهای فرم، کلیک، تغییر و غیره&lt;/li&gt;&lt;/ul&gt;&lt;/li&gt;&lt;li&gt;&lt;p&gt;&lt;strong&gt;کار با فرم‌ها&lt;/strong&gt;:&lt;/p&gt;&lt;ul&gt;&lt;li&gt;ساخت و اعتبارسنجی فرم‌ها&lt;/li&gt;&lt;li&gt;مدیریت ارسال فرم و دریافت داده‌ها&lt;/li&gt;&lt;/ul&gt;&lt;/li&gt;&lt;li&gt;&lt;p&gt;&lt;strong&gt;کار با Fetch API&lt;/strong&gt;:&lt;/p&gt;&lt;ul&gt;&lt;li&gt;ارسال درخواست‌های HTTP&lt;/li&gt;&lt;li&gt;مدیریت پاسخ‌ها و خطاها&lt;/li&gt;&lt;li&gt;استفاده از Promise ها و async/await&lt;/li&gt;&lt;/ul&gt;&lt;/li&gt;&lt;li&gt;&lt;p&gt;&lt;strong&gt;مدیریت وضعیت (State Management)&lt;/strong&gt;:&lt;/p&gt;&lt;ul&gt;&lt;li&gt;ذخیره و مدیریت داده‌های وضعیت برنامه&lt;/li&gt;&lt;li&gt;پیاده‌سازی وضعیت‌های پیچیده با استفاده از الگوهای طراحی مناسب&lt;/li&gt;&lt;/ul&gt;&lt;/li&gt;&lt;li&gt;&lt;p&gt;&lt;strong&gt;احراز هویت (Authentication)&lt;/strong&gt;:&lt;/p&gt;&lt;ul&gt;&lt;li&gt;ایجاد سیستم ورود و ثبت‌نام کاربران&lt;/li&gt;&lt;li&gt;استفاده از JWT یا تکنیک‌های مشابه برای احراز هویت&lt;/li&gt;&lt;li&gt;مدیریت نشست‌های کاربر (User Sessions)&lt;/li&gt;&lt;/ul&gt;&lt;/li&gt;&lt;li&gt;&lt;p&gt;&lt;strong&gt;LocalStorage&lt;/strong&gt;:&lt;/p&gt;&lt;ul&gt;&lt;li&gt;ذخیره و بازیابی داده‌ها در مرورگر&lt;/li&gt;&lt;li&gt;مدیریت داده‌ها به صورت محلی بدون نیاز به سرور&lt;/li&gt;&lt;/ul&gt;&lt;/li&gt;&lt;li&gt;&lt;p&gt;&lt;strong&gt;پیاده‌سازی Router ساده&lt;/strong&gt;:&lt;/p&gt;&lt;ul&gt;&lt;li&gt;مدیریت صفحات مختلف بدون رفرش صفحه&lt;/li&gt;&lt;li&gt;استفاده از hash-based routing یا pushState API&lt;/li&gt;&lt;/ul&gt;&lt;/li&gt;&lt;li&gt;&lt;p&gt;&lt;strong&gt;ساختاردهی و سازماندهی کد&lt;/strong&gt;:&lt;/p&gt;&lt;/li&gt;&lt;/ol&gt;&lt;ul&gt;&lt;li&gt;استفاده از ماژول‌ها (ES6 Modules)&lt;/li&gt;&lt;li&gt;پیاده‌سازی الگوهای طراحی مناسب مانند MVC&lt;/li&gt;&lt;/ul&gt;&lt;h3&gt;مفاهیم پیشرفته‌تر (اختیاری):&lt;/h3&gt;&lt;ol&gt;&lt;li&gt;&lt;p&gt;&lt;strong&gt;کار با WebSockets&lt;/strong&gt;:&lt;/p&gt;&lt;ul&gt;&lt;li&gt;ایجاد ارتباط زنده بین سرور و کلاینت&lt;/li&gt;&lt;li&gt;پیاده‌سازی پیام‌رسانی بلادرنگ&lt;/li&gt;&lt;/ul&gt;&lt;/li&gt;&lt;li&gt;&lt;p&gt;&lt;strong&gt;استفاده از Service Workers&lt;/strong&gt;:&lt;/p&gt;&lt;ul&gt;&lt;li&gt;پیاده‌سازی قابلیت‌های پیشرفته مانند Cache و Offline&lt;/li&gt;&lt;/ul&gt;&lt;/li&gt;&lt;li&gt;&lt;p&gt;&lt;strong&gt;کار با IndexedDB&lt;/strong&gt;:&lt;/p&gt;&lt;ul&gt;&lt;li&gt;مدیریت داده‌های پیچیده و حجیم در مرورگر&lt;/li&gt;&lt;/ul&gt;&lt;/li&gt;&lt;/ol&gt;" link="&lt;h3&gt;تکنولوژی‌ها:&lt;/h3&gt;&lt;ol&gt;&lt;li&gt;&lt;p&gt;&lt;strong&gt;HTML&lt;/strong&gt;:&lt;/p&gt;&lt;ul&gt;&lt;li&gt;ساختاردهی و سازماندهی محتوا&lt;/li&gt;&lt;li&gt;استفاده از تگ‌های اساسی و فرم‌ها&lt;/li&gt;&lt;/ul&gt;&lt;/li&gt;&lt;li&gt;&lt;p&gt;&lt;strong&gt;CSS&lt;/strong&gt;:&lt;/p&gt;&lt;ul&gt;&lt;li&gt;طراحی و استایل‌دهی به صفحات وب&lt;/li&gt;&lt;li&gt;استفاده از Flexbox و Grid برای طراحی ریسپانسیو&lt;/li&gt;&lt;li&gt;انیمیشن‌ها و ترنزیشن‌ها&lt;/li&gt;&lt;/ul&gt;&lt;/li&gt;&lt;li&gt;&lt;p&gt;&lt;strong&gt;Vanilla JavaScript&lt;/strong&gt;:&lt;/p&gt;&lt;ul&gt;&lt;li&gt;مدیریت عناصر DOM&lt;/li&gt;&lt;li&gt;مدیریت رویدادها (Event Handling)&lt;/li&gt;&lt;li&gt;استفاده از Fetch API&lt;/li&gt;&lt;li&gt;مدیریت وضعیت (State Management)&lt;/li&gt;&lt;li&gt;پیاده‌سازی Router ساده&lt;/li&gt;&lt;li&gt;مدیریت محلی داده‌ها (LocalStorage)&lt;/li&gt;&lt;/ul&gt;&lt;/li&gt;&lt;li&gt;&lt;p&gt;&lt;strong&gt;Node.js و Express.js (اختیاری برای بک‌اند)&lt;/strong&gt;:&lt;/p&gt;&lt;ul&gt;&lt;li&gt;پیاده‌سازی سرور ساده&lt;/li&gt;&lt;li&gt;ایجاد و مدیریت API‌های RESTful&lt;/li&gt;&lt;/ul&gt;&lt;/li&gt;&lt;/ol&gt;&lt;h3&gt;مفاهیم:&lt;/h3&gt;&lt;ol&gt;&lt;li&gt;&lt;p&gt;&lt;strong&gt;مفاهیم ابتدایی جاوااسکریپت&lt;/strong&gt;:&lt;/p&gt;&lt;ul&gt;&lt;li&gt;متغیرها و انواع داده‌ها&lt;/li&gt;&lt;li&gt;توابع و نحوه تعریف و استفاده از آنها&lt;/li&gt;&lt;li&gt;حلقه‌ها و شرط‌ها&lt;/li&gt;&lt;/ul&gt;&lt;/li&gt;&lt;li&gt;&lt;p&gt;&lt;strong&gt;مدیریت DOM&lt;/strong&gt;:&lt;/p&gt;&lt;ul&gt;&lt;li&gt;انتخاب و تغییر عناصر DOM&lt;/li&gt;&lt;li&gt;ایجاد، حذف و تغییر عناصر HTML با جاوااسکریپت&lt;/li&gt;&lt;li&gt;مدیریت کلاس‌ها و استایل‌ها با جاوااسکریپت&lt;/li&gt;&lt;/ul&gt;&lt;/li&gt;&lt;li&gt;&lt;p&gt;&lt;strong&gt;مدیریت رویدادها&lt;/strong&gt;:&lt;/p&gt;&lt;ul&gt;&lt;li&gt;اضافه کردن و حذف رویدادها&lt;/li&gt;&lt;li&gt;کار با رویدادهای فرم، کلیک، تغییر و غیره&lt;/li&gt;&lt;/ul&gt;&lt;/li&gt;&lt;li&gt;&lt;p&gt;&lt;strong&gt;کار با فرم‌ها&lt;/strong&gt;:&lt;/p&gt;&lt;ul&gt;&lt;li&gt;ساخت و اعتبارسنجی فرم‌ها&lt;/li&gt;&lt;li&gt;مدیریت ارسال فرم و دریافت داده‌ها&lt;/li&gt;&lt;/ul&gt;&lt;/li&gt;&lt;li&gt;&lt;p&gt;&lt;strong&gt;کار با Fetch API&lt;/strong&gt;:&lt;/p&gt;&lt;ul&gt;&lt;li&gt;ارسال درخواست‌های HTTP&lt;/li&gt;&lt;li&gt;مدیریت پاسخ‌ها و خطاها&lt;/li&gt;&lt;li&gt;استفاده از Promise ها و async/await&lt;/li&gt;&lt;/ul&gt;&lt;/li&gt;&lt;li&gt;&lt;p&gt;&lt;strong&gt;مدیریت وضعیت (State Management)&lt;/strong&gt;:&lt;/p&gt;&lt;ul&gt;&lt;li&gt;ذخیره و مدیریت داده‌های وضعیت برنامه&lt;/li&gt;&lt;li&gt;پیاده‌سازی وضعیت‌های پیچیده با استفاده از الگوهای طراحی مناسب&lt;/li&gt;&lt;/ul&gt;&lt;/li&gt;&lt;li&gt;&lt;p&gt;&lt;strong&gt;احراز هویت (Authentication)&lt;/strong&gt;:&lt;/p&gt;&lt;ul&gt;&lt;li&gt;ایجاد سیستم ورود و ثبت‌نام کاربران&lt;/li&gt;&lt;li&gt;استفاده از JWT یا تکنیک‌های مشابه برای احراز هویت&lt;/li&gt;&lt;li&gt;مدیریت نشست‌های کاربر (User Sessions)&lt;/li&gt;&lt;/ul&gt;&lt;/li&gt;&lt;li&gt;&lt;p&gt;&lt;strong&gt;LocalStorage&lt;/strong&gt;:&lt;/p&gt;&lt;ul&gt;&lt;li&gt;ذخیره و بازیابی داده‌ها در مرورگر&lt;/li&gt;&lt;li&gt;مدیریت داده‌ها به صورت محلی بدون نیاز به سرور&lt;/li&gt;&lt;/ul&gt;&lt;/li&gt;&lt;li&gt;&lt;p&gt;&lt;strong&gt;پیاده‌سازی Router ساده&lt;/strong&gt;:&lt;/p&gt;&lt;ul&gt;&lt;li&gt;مدیریت صفحات مختلف بدون رفرش صفحه&lt;/li&gt;&lt;li&gt;استفاده از hash-based routing یا pushState API&lt;/li&gt;&lt;/ul&gt;&lt;/li&gt;&lt;li&gt;&lt;p&gt;&lt;strong&gt;ساختاردهی و سازماندهی کد&lt;/strong&gt;:&lt;/p&gt;&lt;/li&gt;&lt;/ol&gt;&lt;ul&gt;&lt;li&gt;استفاده از ماژول‌ها (ES6 Modules)&lt;/li&gt;&lt;li&gt;پیاده‌سازی الگوهای طراحی مناسب مانند MVC&lt;/li&gt;&lt;/ul&gt;&lt;h3&gt;مفاهیم پیشرفته‌تر (اختیاری):&lt;/h3&gt;&lt;ol&gt;&lt;li&gt;&lt;p&gt;&lt;strong&gt;کار با WebSockets&lt;/strong&gt;:&lt;/p&gt;&lt;ul&gt;&lt;li&gt;ایجاد ارتباط زنده بین سرور و کلاینت&lt;/li&gt;&lt;li&gt;پیاده‌سازی پیام‌رسانی بلادرنگ&lt;/li&gt;&lt;/ul&gt;&lt;/li&gt;&lt;li&gt;&lt;p&gt;&lt;strong&gt;استفاده از Service Workers&lt;/strong&gt;:&lt;/p&gt;&lt;ul&gt;&lt;li&gt;پیاده‌سازی قابلیت‌های پیشرفته مانند Cache و Offline&lt;/li&gt;&lt;/ul&gt;&lt;/li&gt;&lt;li&gt;&lt;p&gt;&lt;strong&gt;کار با IndexedDB&lt;/strong&gt;:&lt;/p&gt;&lt;ul&gt;&lt;li&gt;مدیریت داده‌های پیچیده و حجیم در مرورگر&lt;/li&gt;&lt;/ul&gt;&lt;/li&gt;&lt;/ol&gt;" id="z42YFl878_zfLrrGlUJK-2">
          <mxCell style="text;whiteSpace=wrap;html=1;" vertex="1" parent="1">
            <mxGeometry x="800" y="420" width="370" height="1380" as="geometry" />
          </mxCell>
        </UserObject>
      </root>
    </mxGraphModel>
  </diagram>
</mxfile>
